<svg width="40" height="40" viewBox="0 0 40 40" fill="none" xmlns="http://www.w3.org/2000/svg">
<path d="M23.7184 12.2133C23.8592 12.0767 24.0501 12 24.2492 12C24.4484 12 24.6393 12.0767 24.7801 12.2133C24.9209 12.3498 25 12.535 25 12.7281C25 12.9212 24.9209 13.1064 24.7801 13.243L17.8114 20L24.7801 26.757C24.9209 26.8936 25 27.0788 25 27.2719C25 27.465 24.9209 27.6502 24.7801 27.7867C24.6393 27.9233 24.4484 28 24.2492 28C24.0501 28 23.8592 27.9233 23.7184 27.7867L16.2203 20.5148C16.1505 20.4473 16.0951 20.3671 16.0573 20.2787C16.0195 20.1904 16 20.0957 16 20C16 19.9043 16.0195 19.8096 16.0573 19.7213C16.0951 19.6329 16.1505 19.5527 16.2203 19.4851L23.7184 12.2133Z" fill="#262522"/>
<path fill-rule="evenodd" clip-rule="evenodd" d="M20 2.5C29.665 2.5 37.5 10.335 37.5 20C37.5 29.665 29.665 37.5 20 37.5C10.335 37.5 2.5 29.665 2.5 20C2.5 10.335 10.335 2.5 20 2.5ZM35.8333 20C35.8333 15.8007 34.1652 11.7735 31.1959 8.80414C28.2265 5.83482 24.1993 4.16667 20 4.16667C15.8007 4.16667 11.7735 5.83482 8.80414 8.80414C5.83482 11.7735 4.16667 15.8007 4.16667 20C4.16667 24.1993 5.83482 28.2265 8.80414 31.1959C11.7735 34.1652 15.8007 35.8333 20 35.8333C24.1993 35.8333 28.2265 34.1652 31.1959 31.1959C34.1652 28.2265 35.8333 24.1993 35.8333 20Z" fill="#262522"/>
</svg>
