<svg width="40" height="40" viewBox="0 0 40 40" fill="none" xmlns="http://www.w3.org/2000/svg">
<path d="M17.2816 12.2133C17.1408 12.0767 16.9499 12 16.7508 12C16.5516 12 16.3607 12.0767 16.2199 12.2133C16.0791 12.3498 16 12.535 16 12.7281C16 12.9212 16.0791 13.1064 16.2199 13.243L23.1886 20L16.2199 26.757C16.0791 26.8936 16 27.0788 16 27.2719C16 27.465 16.0791 27.6502 16.2199 27.7867C16.3607 27.9233 16.5516 28 16.7508 28C16.9499 28 17.1408 27.9233 17.2816 27.7867L24.7797 20.5148C24.8495 20.4473 24.9049 20.3671 24.9427 20.2787C24.9805 20.1904 25 20.0957 25 20C25 19.9043 24.9805 19.8096 24.9427 19.7213C24.9049 19.6329 24.8495 19.5527 24.7797 19.4851L17.2816 12.2133Z" fill="#262522"/>
<path fill-rule="evenodd" clip-rule="evenodd" d="M20 2.5C10.335 2.5 2.5 10.335 2.5 20C2.5 29.665 10.335 37.5 20 37.5C29.665 37.5 37.5 29.665 37.5 20C37.5 10.335 29.665 2.5 20 2.5ZM4.16667 20C4.16667 15.8007 5.83482 11.7735 8.80414 8.80414C11.7735 5.83482 15.8007 4.16667 20 4.16667C24.1993 4.16667 28.2265 5.83482 31.1959 8.80414C34.1652 11.7735 35.8333 15.8007 35.8333 20C35.8333 24.1993 34.1652 28.2265 31.1959 31.1959C28.2265 34.1652 24.1993 35.8333 20 35.8333C15.8007 35.8333 11.7735 34.1652 8.80414 31.1959C5.83482 28.2265 4.16667 24.1993 4.16667 20Z" fill="#262522"/>
</svg>
