<svg width="24" height="24" viewBox="0 0 24 24" fill="none" xmlns="http://www.w3.org/2000/svg">
<path fill-rule="evenodd" clip-rule="evenodd" d="M12 4C12.2273 4 12.4453 4.09015 12.6061 4.25063C12.7668 4.41111 12.8571 4.62876 12.8571 4.85571V6.04229C14.8194 6.25339 16.6342 7.18115 17.9527 8.6472C19.2712 10.1133 20.0004 12.0141 20 13.9844C20 14.4383 19.8194 14.8736 19.4979 15.1946C19.1764 15.5155 18.7404 15.6958 18.2857 15.6958H5.71429C5.25963 15.6958 4.82359 15.5155 4.5021 15.1946C4.18061 14.8736 4 14.4383 4 13.9844C3.99992 12.0143 4.72921 10.1137 6.0477 8.64792C7.36619 7.1821 9.18083 6.25451 11.1429 6.04343V4.85685C11.1427 4.74438 11.1648 4.63298 11.2078 4.52903C11.2508 4.42508 11.3139 4.33062 11.3935 4.25103C11.4731 4.17145 11.5677 4.10832 11.6717 4.06525C11.7758 4.02217 11.8873 4 12 4ZM4.89143 17.2886C4.6641 17.2886 4.44608 17.3787 4.28534 17.5392C4.12459 17.6997 4.03429 17.9173 4.03429 18.1443C4.03429 18.3712 4.12459 18.5889 4.28534 18.7494C4.44608 18.9098 4.6641 19 4.89143 19H19.1086C19.3359 19 19.5539 18.9098 19.7147 18.7494C19.8754 18.5889 19.9657 18.3712 19.9657 18.1443C19.9657 17.9173 19.8754 17.6997 19.7147 17.5392C19.5539 17.3787 19.3359 17.2886 19.1086 17.2886H4.89143Z" fill="#262522"/>
</svg>
