<svg width="24" height="24" viewBox="0 0 24 24" fill="none" xmlns="http://www.w3.org/2000/svg">
<path d="M12.0001 8C12.2834 8 12.5211 7.904 12.7131 7.712C12.9051 7.52 13.0008 7.28267 13.0001 7C13.0001 6.71667 12.9041 6.47933 12.7121 6.288C12.5201 6.09667 12.2828 6.00067 12.0001 6C11.7168 6 11.4794 6.096 11.2881 6.288C11.0968 6.48 11.0008 6.71733 11.0001 7C11.0001 7.28333 11.0961 7.521 11.2881 7.713C11.4801 7.905 11.7174 8.00067 12.0001 8ZM13.7101 8H16.0561C16.4661 8 16.8194 8.13133 17.1161 8.394C17.4121 8.65667 17.5888 8.99133 17.6461 9.398L18.8981 18.168C18.9688 18.652 18.8434 19.0787 18.5221 19.448C18.2008 19.816 17.7894 20 17.2881 20H6.71212C6.21078 20 5.79945 19.8157 5.47812 19.447C5.15678 19.0783 5.03145 18.6517 5.10212 18.167L6.35412 9.398C6.41145 8.99133 6.58812 8.65667 6.88412 8.394C7.18145 8.13133 7.53512 8 7.94512 8H10.2911C10.2031 7.85867 10.1328 7.70267 10.0801 7.532C10.0268 7.36067 10.0001 7.18333 10.0001 7C10.0001 6.436 10.1924 5.96167 10.5771 5.577C10.9618 5.19233 11.4361 5 12.0001 5C12.5641 5 13.0385 5.19233 13.4231 5.577C13.8078 5.96167 14.0001 6.436 14.0001 7C14.0001 7.18333 13.9738 7.36067 13.9211 7.532C13.8684 7.70267 13.7981 7.85867 13.7101 8Z" fill="black"/>
</svg>
